<?xml version="1.0" encoding="utf-8"?>
<!-- Generator: Adobe Illustrator 23.0.0, SVG Export Plug-In . SVG Version: 6.00 Build 0)  -->
<svg version="1.1" id="图层_1" xmlns="http://www.w3.org/2000/svg" xmlns:xlink="http://www.w3.org/1999/xlink" x="0px" y="0px"
	 viewBox="0 0 150 150" style="enable-background:new 0 0 150 150;" xml:space="preserve">
<style type="text/css">
	.st0{fill:#D5EAFF;}
	.st1{fill:#577EFF;}
</style>
<path class="st0" d="M93.8,120.2H82.7v1.7l3.7,4.7l5.3,3.8l2.9,0.4l2.9-0.4l1.6-0.4h0.8l2.5,2.1l1.2,0.4h2l5.7-1.7l-4.5-2.5
	l-2.9-2.5l-3.7-4.7l-2-2.1C98.3,118.9,93.8,120.2,93.8,120.2z M122,18.9l-2.9,3l-0.4,6.8l-2,8.5l-0.4,1.7l4.1-2.5l2.9-5.1l0.4-6.8
	l-0.8-5.1C122.8,19.4,122,18.9,122,18.9z M79.3,93.3l7,2.1l5.3,4.2l2,3.8L94,106l-1.2,2.1l-1.6,0.8l-2.9-0.8l-3.3-3l-4.9-4.2l-2.5-3
	l-1.2-2.5v-1.7l1.2-0.4H79.3z M71.1,93.3l-7,2.1l-5.3,4.2l-2,3.8l-0.4,2.5l1.2,2.1l1.6,0.8l2.9-0.8l3.3-3l4.9-4.2l2.5-3l1.2-2.5
	v-1.7l-1.2-0.4H71.1z"/>
<path class="st1" d="M80.8,119.4c3.5,0.3,6.8,0.8,10.1,0.7c2.1-0.1,4.3-0.8,6.3-1.6c1.3-0.6,1.9-0.5,2.7,0.7c1.5,2.2,3,4.3,4.9,6.1
	c2.9,2.9,6.4,4.3,10.6,4.4c-3.6,1.9-7.4,3-11.4,3.2c-0.8,0.1-1.9-0.7-2.4-1.4c-0.9-1.2-1.8-1.3-3.1-1c-1.5,0.4-3.1,0.7-4.6,0.8
	c-0.8,0.1-1.7-0.2-2.4-0.6C86.6,128.2,83.3,124.2,80.8,119.4 M110.1,130.7c-0.5-0.6-0.6-0.8-0.7-0.9c-4.5-1.9-7.7-5.2-10.3-9.2
	c-0.3-0.5-1.5-0.8-2-0.6c-3.5,1.4-7.1,1.9-10.8,1.2c-0.9-0.2-1.7-0.1-2.8-0.2c2.9,5.2,7.6,10.9,14.9,8.4c1.6-0.5,2.6-0.1,3.7,1.1
	c0.6,0.7,1.8,1.2,2.7,1.1C106.5,131.6,108.1,131.1,110.1,130.7 M123.2,16.8c2.8,8.2,2.7,20.4-9.1,24.2c0-0.2-0.1-0.4,0-0.6
	c3.6-4.8,4.6-10.3,4.5-16.1c0-1.5,0.2-2.6,1.5-3.7C121.2,19.7,122,18.3,123.2,16.8 M117.3,37.7c5.5-1.4,7.5-12.9,5-17.7
	c-0.9,1.3-2.4,2.5-2.4,3.7C119.7,28.4,119.2,33,117.3,37.7 M33.8,60.3c-0.4,1.3-1,2.7-1.5,4.1c-3.7-0.8-6.4-3.7-7.7-8.4
	c1.5,1.1,2.7,2.4,4.2,3.1C30.3,59.8,32,59.9,33.8,60.3 M100.6,34.6c1.5,2.7,0.7,6.6-1.9,9.5c-0.2-1-0.5-1.9-0.4-2.5
	c0.3-1.1,1.1-2.2,1.4-3.3C100.2,37.2,100.3,36,100.6,34.6 M106.7,57.9c0-0.5,0-0.9,0-1.4c-0.2-3.1-3.1-5.9-6.2-5.9
	c-8.2,0-16.4,0-24.6,0v0c-8.3,0-16.6,0-24.9,0c-3.4,0-6.3,3-6.3,6.4c0,1.2,0,2.5,0,3.7c0,11.5,0.1,22.9-0.1,34.4
	c-0.1,4.2,3.6,7.2,7,6.9c1.3-0.1,2.7,0,4,0c0.5,0,0.9,0,0.8,0.8c-0.2,1-0.3,2.1-0.4,3.2c-0.1,1.2,0.6,2,1.3,2.8
	c0.4,0.4,0.6,1,0.9,1.5c0.1,0.3,0,0.7,0.2,1c0.2,0.3,0.5,0.5,0.8,0.6c0.2,0,0.6-0.5,0.6-0.7c-0.2-1.4,0.5-1.9,1.7-2.1
	c0.3,0,0.5-0.2,0.7-0.3c2.8-1.5,5.1-3.7,7.3-5.9c0.4-0.4,1-0.7,1.5-0.7c2.7-0.1,5.4-0.1,8.2,0c0.5,0,1.1,0.3,1.5,0.7
	c1.5,1.2,2.8,2.6,4.3,3.8c1.5,1.2,3.1,2.3,5,2.9c1.4,0.5,1.4,0.4,1.3,1.9c0,0.3,0.2,0.7,0.4,0.8c0.2,0.1,0.8,0.1,0.9-0.1
	c0.2-0.2,0.2-0.7,0.3-1.1c0.1-0.7,0-1.6,0.5-2.1c1.7-1.8,1.7-3.8,1.2-6c-0.2-0.9,0.1-1,0.8-1c1.5,0,3.1-0.1,4.6,0
	c3.6,0.2,6.7-3.3,6.7-6.8C106.6,82.7,106.7,70.3,106.7,57.9z M63.2,106.4c-0.8,0.6-1.8,1-2.7,1.4c-1.6,0.5-2.8-0.4-2.9-2
	c0-0.2,0-0.5,0-0.7c0-2.1,1.1-3.6,2.5-5c1.7-1.8,3.8-2.9,6-3.8c2-0.8,4-1.4,6.1-2c0.3-0.1,0.7-0.1,1,0c0.7,0.1,0.9,0.5,0.6,1.1
	c-0.3,0.7-0.6,1.4-1.1,2C69.8,100.7,66.6,103.7,63.2,106.4z M72.4,99.9l2.8-4.2l2.9,4.2C78.1,99.9,72.4,99.9,72.4,99.9z M93.2,106.7
	c-0.5,1.2-1.6,1.6-2.8,1.2c-2-0.7-3.7-1.9-5.2-3.3c-1.9-1.7-3.8-3.5-5.6-5.4c-1-1-1.8-2.3-2.6-3.5c-0.6-1-0.2-1.6,1.1-1.7
	c1.4,0.4,2.8,0.7,4.2,1.1c2.3,0.8,4.6,1.6,6.6,3.1c1.9,1.3,3.6,2.9,4.3,5.2C93.5,104.5,93.7,105.6,93.2,106.7L93.2,106.7z
	 M104.8,77.4c0,5.9,0,11.8,0,17.8c0,2.1-0.9,3.7-3,4.4c-0.8,0.3-1.7,0.3-2.6,0.3c-1.9,0-3.7,0-5.6-0.1c-0.4,0-1-0.2-1.3-0.5
	c-3.8-3.7-8.5-5.4-13.5-6.4c-1.1-0.2-2.3-0.3-3.3,0.7c-0.1,0.1-0.6,0.1-0.8-0.1c-0.9-0.9-2-0.8-3.1-0.6C67,94,62.5,95.5,59,99.1
	c-1,1.1-2.2,0.7-3.3,0.8c-1.5,0.1-3.1,0-4.6-0.1c-2.6-0.1-4.5-1.9-4.5-4.5c0-6.3,0-12.7,0-19h0c0-6.3,0.1-12.7,0-19
	c0-2.5,2.1-4.7,4.3-4.6c2.2,0.1,4.4,0,6.6,0c5.6,0,11.3-0.1,16.9-0.1c7.1,0,14.2,0,21.3,0.1c1.5,0,3.1,0,4.6,0
	c2.6,0,4.5,1.9,4.5,4.6C104.8,64,104.8,70.7,104.8,77.4L104.8,77.4z M95.8,68.5c-1.8-1.6-3.9-2.6-6.1-3.3c-1.3-0.4-2.6-0.5-3.9-0.6
	c-0.3,0-0.6,0.3-1,0.5c0.3,0.2,0.5,0.6,0.9,0.7c0.4,0.2,0.9,0.2,1.4,0.3v0.3c-0.3,0.2-0.7,0.5-1,0.7c-2.4,1.6-3.4,4.9-2.3,7.5
	c1.5,3.5,4.6,4.7,8,3.5c2.9-1,4.4-3.2,4.1-6.6c0-0.5-0.1-0.8,0.5-0.9c0.9-0.2,0.9-0.6,0.4-1.3C96.4,69.1,96.1,68.8,95.8,68.5
	L95.8,68.5z M84.9,70.8c0-0.6,0.7-1.2,1.3-1.3c0.7,0,1.3,0.6,1.3,1.3c0,0.8-0.5,1.3-1.3,1.3C85.5,72.1,84.9,71.4,84.9,70.8z
	 M87.1,76.7c-0.9,0-1.6-0.9-1.6-1.9c0-0.9,0.8-1.8,1.8-1.7c0.8,0,1.6,0.9,1.6,1.8C88.8,75.9,88,76.7,87.1,76.7z M91.6,75.3
	c-1.4,0-2.6-1.4-2.6-3c0-1.6,1.5-2.9,3-2.8c1.4,0.1,2.8,1.6,2.7,3C94.7,74.2,93.4,75.4,91.6,75.3z M63.8,66.8
	c-0.3-0.2-0.6-0.4-0.7-0.5c0.5-0.5,1.3-1,1.2-1.3c-0.2-0.8-1-0.4-1.6-0.4c0,0-0.1,0-0.1,0c-2.7,0.2-5,1.5-7.2,3
	c-0.8,0.6-1.5,1.3-2.1,2.1c-0.6,0.7-0.4,1.2,0.4,1.2c0.7,0.1,0.7,0.4,0.7,1c0,2.4,1,4.2,3.1,5.4c1.9,1.1,3.9,1.2,5.9,0.1
	C67.6,75,67.8,69.6,63.8,66.8z M55.9,70.5c-0.1-0.6,0.7-1.4,1.3-1.4c0.6,0,1.2,0.6,1.2,1.3c0,0.8-0.4,1.2-1.2,1.2
	C56.5,71.7,56.1,71.2,55.9,70.5z M58.1,76.2c-0.9,0-1.8-0.9-1.8-1.8c0-1,0.8-1.7,1.8-1.6c1,0,1.6,0.7,1.6,1.7
	C59.7,75.5,59.1,76.2,58.1,76.2z M62.7,74.9c-1.5,0-2.8-1.2-2.8-2.8c0-1.6,1.2-3,2.7-3c1.7,0,2.8,1.1,2.9,3
	C65.7,73.4,64.2,75,62.7,74.9z M75.2,84.6c-2.6,0-4.4,1.1-5.8,2.8c-0.3,0.4-0.3,1-0.4,1.5c0.5-0.1,0.9-0.1,1.4-0.3
	c1.3-0.4,2.6-1.1,4-1.3c1.8-0.3,3.5,0.4,5.1,1.3c0.3,0.2,0.7,0.1,1,0.2c-0.1-0.4,0-0.8-0.2-1.1C79.1,85.9,77.4,84.6,75.2,84.6z
	 M90.9,80.6c-0.2,0.1-0.5,0.1-0.7,0c-1.4-0.7-2-0.5-3.1,0.7h5l0.1-0.3C91.9,80.5,91.6,80.1,90.9,80.6z M59.2,80
	c-0.3,0.1-0.5,0.4-0.7,0.5c0.3,0.1,0.5,0.3,0.8,0.3c0.8,0,1.7-0.2,2.5-0.3l0,0.1c0.1,0,0.2,0,0.3,0c0.3,0,0.5-0.1,0.8-0.1
	c-0.2-0.2-0.5-0.3-0.7-0.5C61.2,79.3,60.2,79.7,59.2,80z"/>
</svg>
